HIERARCHY
ROOT Hips
{
	OFFSET 0.000000 100.481300 0.000000
	CHANNELS 6 Xposition Yposition Zposition Xrotation Yrotation Zrotation
	JOINT Spine
	{
		OFFSET -0.279200 12.230698 -2.892100
		CHANNELS 3 Xrotation Yrotation Zrotation
		JOINT Spine1
		{
			OFFSET -0.325700 14.269203 -3.374200
			CHANNELS 3 Xrotation Yrotation Zrotation
			JOINT Spine2
			{
				OFFSET -0.372300 16.307602 -0.352600
				CHANNELS 3 Xrotation Yrotation Zrotation
				JOINT Neck
				{
					OFFSET -0.418800 17.814194 8.416900
					CHANNELS 3 Xrotation Yrotation Zrotation
					JOINT Head
					{
						OFFSET 0.000000 7.031097 3.806800
						CHANNELS 3 Xrotation Yrotation Zrotation
						JOINT HeadTop_End
						{
							OFFSET 0.000000 24.646606 12.978600
							CHANNELS 3 Xrotation Yrotation Zrotation
							End Site
							{
								OFFSET 0.000000 27.854965 0.000000
							}
						}
					}
				}
				JOINT LeftShoulder
				{
					OFFSET 16.952999 14.495407 -7.737500
					CHANNELS 3 Xrotation Yrotation Zrotation
					JOINT LeftArm
					{
						OFFSET 9.308998 -2.777710 0.208600
						CHANNELS 3 Xrotation Yrotation Zrotation
						JOINT LeftForeArm
						{
							OFFSET 29.972298 0.000000 0.000000
							CHANNELS 3 Xrotation Yrotation Zrotation
							JOINT LeftHand
							{
								OFFSET 26.026505 0.000000 0.000000
								CHANNELS 3 Xrotation Yrotation Zrotation
								JOINT LeftHandThumb1
								{
									OFFSET 12.240501 -7.147949 9.207150
									CHANNELS 3 Xrotation Yrotation Zrotation
									JOINT LeftHandThumb2
									{
										OFFSET 4.138618 -2.389435 2.389433
										CHANNELS 3 Xrotation Yrotation Zrotation
										JOINT LeftHandThumb3
										{
											OFFSET 2.726913 -1.574387 1.574386
											CHANNELS 3 Xrotation Yrotation Zrotation
											JOINT LeftHandThumb4
											{
												OFFSET 3.941010 -2.275345 2.275342
												CHANNELS 3 Xrotation Yrotation Zrotation
												End Site
												{
													OFFSET -0.005798 5.087799 0.009903
												}
											}
										}
									}
								}
								JOINT LeftHandIndex1
								{
									OFFSET 24.424698 -1.985611 5.953459
									CHANNELS 3 Xrotation Yrotation Zrotation
									JOINT LeftHandIndex2
									{
										OFFSET 6.426697 0.000000 0.000000
										CHANNELS 3 Xrotation Yrotation Zrotation
										JOINT LeftHandIndex3
										{
											OFFSET 5.337898 0.000000 0.000000
											CHANNELS 3 Xrotation Yrotation Zrotation
											JOINT LeftHandIndex4
											{
												OFFSET 4.409401 0.000000 0.000000
												CHANNELS 3 Xrotation Yrotation Zrotation
												End Site
												{
													OFFSET 0.000000 4.409363 0.014373
												}
											}
										}
									}
								}
								JOINT LeftHandMiddle1
								{
									OFFSET 23.810104 0.000000 0.000000
									CHANNELS 3 Xrotation Yrotation Zrotation
									JOINT LeftHandMiddle2
									{
										OFFSET 7.176498 0.000000 0.000000
										CHANNELS 3 Xrotation Yrotation Zrotation
										JOINT LeftHandMiddle3
										{
											OFFSET 6.774902 0.000000 0.000000
											CHANNELS 3 Xrotation Yrotation Zrotation
											JOINT LeftHandMiddle4
											{
												OFFSET 5.403328 0.000000 0.000000
												CHANNELS 3 Xrotation Yrotation Zrotation
												End Site
												{
													OFFSET -0.027702 5.403244 0.017414
												}
											}
										}
									}
								}
								JOINT LeftHandRing1
								{
									OFFSET 22.908401 -0.839279 -6.020567
									CHANNELS 3 Xrotation Yrotation Zrotation
									JOINT LeftHandRing2
									{
										OFFSET 6.337502 0.000000 0.000000
										CHANNELS 3 Xrotation Yrotation Zrotation
										JOINT LeftHandRing3
										{
											OFFSET 5.779297 0.000000 0.000000
											CHANNELS 3 Xrotation Yrotation Zrotation
											JOINT LeftHandRing4
											{
												OFFSET 4.965698 0.000000 0.000000
												CHANNELS 3 Xrotation Yrotation Zrotation
												End Site
												{
													OFFSET 0.000000 4.965668 0.016186
												}
											}
										}
									}
								}
								JOINT LeftHandPinky1
								{
									OFFSET 20.037003 -1.530319 -10.950146
									CHANNELS 3 Xrotation Yrotation Zrotation
									JOINT LeftHandPinky2
									{
										OFFSET 5.254700 0.000000 0.000000
										CHANNELS 3 Xrotation Yrotation Zrotation
										JOINT LeftHandPinky3
										{
											OFFSET 4.810204 0.000000 0.000000
											CHANNELS 3 Xrotation Yrotation Zrotation
											JOINT LeftHandPinky4
											{
												OFFSET 3.647202 0.000000 0.000000
												CHANNELS 3 Xrotation Yrotation Zrotation
												End Site
												{
													OFFSET 0.000000 3.647186 0.011889
												}
											}
										}
									}
								}
							}
						}
					}
				}
				JOINT RightShoulder
				{
					OFFSET -15.141001 14.495407 -7.737500
					CHANNELS 3 Xrotation Yrotation Zrotation
					JOINT RightArm
					{
						OFFSET -9.308998 -2.777710 0.208500
						CHANNELS 3 Xrotation Yrotation Zrotation
						JOINT RightForeArm
						{
							OFFSET -29.972300 0.000000 0.000000
							CHANNELS 3 Xrotation Yrotation Zrotation
							JOINT RightHand
							{
								OFFSET -26.026505 0.000000 0.000000
								CHANNELS 3 Xrotation Yrotation Zrotation
								JOINT RightHandThumb1
								{
									OFFSET -12.240601 -7.148026 9.207092
									CHANNELS 3 Xrotation Yrotation Zrotation
									JOINT RightHandThumb2
									{
										OFFSET -4.138618 -2.389435 2.389433
										CHANNELS 3 Xrotation Yrotation Zrotation
										JOINT RightHandThumb3
										{
											OFFSET -2.726974 -1.574417 1.574421
											CHANNELS 3 Xrotation Yrotation Zrotation
											JOINT RightHandThumb4
											{
												OFFSET -3.941010 -2.275345 2.275343
												CHANNELS 3 Xrotation Yrotation Zrotation
												End Site
												{
													OFFSET 0.005814 5.087799 0.009927
												}
											}
										}
									}
								}
								JOINT RightHandIndex1
								{
									OFFSET -24.424698 -1.985657 5.953444
									CHANNELS 3 Xrotation Yrotation Zrotation
									JOINT RightHandIndex2
									{
										OFFSET -6.426697 0.000000 0.000000
										CHANNELS 3 Xrotation Yrotation Zrotation
										JOINT RightHandIndex3
										{
											OFFSET -5.337898 0.000000 0.000000
											CHANNELS 3 Xrotation Yrotation Zrotation
											JOINT RightHandIndex4
											{
												OFFSET -4.409401 0.000000 0.000000
												CHANNELS 3 Xrotation Yrotation Zrotation
												End Site
												{
													OFFSET 0.000000 4.409363 0.014408
												}
											}
										}
									}
								}
								JOINT RightHandMiddle1
								{
									OFFSET -23.810097 0.000000 0.000000
									CHANNELS 3 Xrotation Yrotation Zrotation
									JOINT RightHandMiddle2
									{
										OFFSET -7.176498 0.000000 0.000000
										CHANNELS 3 Xrotation Yrotation Zrotation
										JOINT RightHandMiddle3
										{
											OFFSET -6.774902 0.000000 0.000000
											CHANNELS 3 Xrotation Yrotation Zrotation
											JOINT RightHandMiddle4
											{
												OFFSET -5.403328 0.000000 0.000000
												CHANNELS 3 Xrotation Yrotation Zrotation
												End Site
												{
													OFFSET 0.027702 5.403244 0.017457
												}
											}
										}
									}
								}
								JOINT RightHandRing1
								{
									OFFSET -22.908302 -0.839325 -6.020576
									CHANNELS 3 Xrotation Yrotation Zrotation
									JOINT RightHandRing2
									{
										OFFSET -6.337502 0.000000 0.000000
										CHANNELS 3 Xrotation Yrotation Zrotation
										JOINT RightHandRing3
										{
											OFFSET -5.779297 0.000000 0.000000
											CHANNELS 3 Xrotation Yrotation Zrotation
											JOINT RightHandRing4
											{
												OFFSET -4.965698 0.000000 0.000000
												CHANNELS 3 Xrotation Yrotation Zrotation
												End Site
												{
													OFFSET 0.000000 4.965668 0.016226
												}
											}
										}
									}
								}
								JOINT RightHandPinky1
								{
									OFFSET -20.037003 -1.530334 -10.950259
									CHANNELS 3 Xrotation Yrotation Zrotation
									JOINT RightHandPinky2
									{
										OFFSET -5.254700 0.000000 0.000000
										CHANNELS 3 Xrotation Yrotation Zrotation
										JOINT RightHandPinky3
										{
											OFFSET -4.810204 0.000000 0.000000
											CHANNELS 3 Xrotation Yrotation Zrotation
											JOINT RightHandPinky4
											{
												OFFSET -3.647202 0.000000 0.000000
												CHANNELS 3 Xrotation Yrotation Zrotation
												End Site
												{
													OFFSET 0.000000 3.647186 0.011917
												}
											}
										}
									}
								}
							}
						}
					}
				}
			}
		}
	}
	JOINT LeftUpLeg
	{
		OFFSET 15.427100 -6.655098 0.678600
		CHANNELS 3 Xrotation Yrotation Zrotation
		JOINT LeftLeg
		{
			OFFSET 4.081073 -39.591068 13.024000
			CHANNELS 3 Xrotation Yrotation Zrotation
			JOINT LeftFoot
			{
				OFFSET -4.081074 -37.707932 -15.979700
				CHANNELS 3 Xrotation Yrotation Zrotation
				JOINT LeftToeBase
				{
					OFFSET 5.346399 -15.068900 20.645000
					CHANNELS 3 Xrotation Yrotation Zrotation
					JOINT LeftToe_End
					{
						OFFSET 2.754700 0.931300 11.300900
						CHANNELS 3 Xrotation Yrotation Zrotation
						End Site
						{
							OFFSET 0.000000 11.669021 0.000000
						}
					}
				}
			}
		}
	}
	JOINT RightUpLeg
	{
		OFFSET -15.569500 -6.655098 0.678600
		CHANNELS 3 Xrotation Yrotation Zrotation
		JOINT RightLeg
		{
			OFFSET -4.081825 -39.591045 13.023800
			CHANNELS 3 Xrotation Yrotation Zrotation
			JOINT RightFoot
			{
				OFFSET 4.081824 -37.707954 -15.979600
				CHANNELS 3 Xrotation Yrotation Zrotation
				JOINT RightToeBase
				{
					OFFSET -5.346400 -15.068900 20.645000
					CHANNELS 3 Xrotation Yrotation Zrotation
					JOINT RightToe_End
					{
						OFFSET -2.754700 0.931300 11.300900
						CHANNELS 3 Xrotation Yrotation Zrotation
						End Site
						{
							OFFSET 0.000000 11.669021 0.000000
						}
					}
				}
			}
		}
	}
}
MOTION
Frames: 4
Frame Time: 0.033333
0.670774 81.134750 142.592194 -7.497592 -32.597682 -4.735996 18.805922 8.861475 12.543111 2.247038 -1.353913 1.474760 2.281485 -1.340636 1.575006 -1.550406 -0.640663 7.150403 -17.164706 25.767046 -4.685388 -0.000000 0.000000 0.000000 -5.236866 3.647112 2.124463 -19.318808 -10.895581 -91.153751 0.381335 -90.226867 0.381983 -75.511614 -19.885128 9.736788 4.709219 9.560377 3.111989 19.473190 -1.474909 7.636927 -4.536196 -9.613089 1.492962 0.000003 0.000000 0.000000 -0.212827 3.933733 -36.747135 2.942140 5.078901 -60.144597 0.513683 2.400816 -24.150524 -0.000002 0.000001 0.000001 0.405910 5.507047 -52.453172 3.387140 5.308633 -65.057456 0.282018 1.797450 -17.832381 -0.000003 0.000004 -0.000004 -0.074382 5.736787 -61.061427 4.055045 5.569508 -72.094921 0.582664 2.548974 -25.748000 0.000001 -0.000001 0.000001 -6.565582 4.545146 -72.425215 3.299642 5.267212 -64.107821 0.175348 1.424029 -14.038890 0.000002 -0.000000 -0.000001 -4.743864 8.836160 21.774892 4.818514 18.273223 26.350120 0.000037 67.383395 -0.000042 13.332590 -15.658813 -10.734385 23.846839 6.231704 -8.259732 11.914306 -4.316026 0.996760 -7.886453 -55.613285 -31.101611 0.000000 0.000000 0.000000 1.495402 -6.166995 27.828595 3.169269 -4.413581 71.349017 0.685500 -2.434044 31.453646 0.000001 0.000001 0.000001 1.230678 -5.443815 34.568383 3.078332 -4.381930 70.163098 0.868347 -2.710107 35.525996 -0.000002 0.000001 -0.000001 1.281767 -5.437045 42.177432 3.951075 -4.603446 81.269969 1.068818 -2.970597 39.569950 0.000000 0.000003 -0.000001 -0.499884 -0.138706 11.907312 3.219962 -4.430336 72.006477 0.430240 -1.956843 24.797546 -0.000000 -0.000001 -0.000002 -35.250733 28.397510 18.340941 69.030174 -7.207350 1.738277 12.699191 -0.793465 17.276248 -40.328732 2.968024 -5.171835 -0.000000 0.000001 -0.000000 -23.387596 -7.165254 6.777492 50.076358 -4.018507 -10.818498 -21.145567 1.782193 3.772886 -12.194719 -0.000029 -0.000005 -0.000000 0.000003 0.000001 
0.508797 82.261604 145.962952 -8.143623 -33.330357 -4.684145 19.716661 8.272657 12.763598 2.005535 -1.465505 1.716665 2.051121 -1.459291 1.804461 -1.272004 -0.418257 7.098113 -15.584728 28.041048 -5.533627 -0.000000 0.000000 0.000001 -4.564809 3.922765 2.137893 -21.382711 -10.629000 -90.404193 -0.630720 -89.832431 -0.631022 -76.873615 -19.123591 10.680218 4.709229 9.560375 3.111993 19.473195 -1.474909 7.636928 -4.536192 -9.613088 1.492962 -0.000001 -0.000000 0.000000 -0.212820 3.933719 -36.747125 2.942146 5.078893 -60.144617 0.513685 2.400821 -24.150519 0.000000 0.000001 -0.000002 0.405911 5.507045 -52.453172 3.387141 5.308632 -65.057456 0.282019 1.797452 -17.832379 0.000001 -0.000002 0.000001 -0.074384 5.736787 -61.061420 4.055040 5.569515 -72.094914 0.582664 2.548973 -25.748005 -0.000004 -0.000000 0.000000 -6.565586 4.545125 -72.425215 3.299622 5.267216 -64.107835 0.175341 1.424024 -14.038877 -0.000000 0.000002 -0.000002 -3.534439 6.378541 21.529844 16.306387 19.156640 23.605397 0.000007 48.624465 -0.000016 4.970689 -15.343977 -15.190192 23.620232 6.833524 -7.585686 11.458772 -5.139151 0.820336 -7.494949 -55.612807 -30.642373 0.000001 -0.000000 -0.000000 1.374559 -5.981142 27.189528 3.145662 -4.405570 71.041993 0.672397 -2.412506 31.143579 0.000000 0.000001 0.000000 1.198161 -5.397660 34.523686 3.057507 -4.374389 69.890334 0.895172 -2.747268 36.089794 0.000001 0.000001 -0.000000 1.259837 -5.413122 41.824916 3.918703 -4.598378 80.866394 1.078496 -2.982266 39.756704 -0.000000 -0.000000 -0.000004 -0.439112 -0.380185 11.696013 3.192202 -4.421247 71.646704 0.438747 -1.975132 25.045668 0.000000 0.000000 0.000001 -38.761655 26.111718 20.596876 64.053938 -7.752418 0.549294 9.839425 -3.356831 14.191040 -27.756019 1.480114 -4.672048 -0.000000 0.000000 -0.000000 -19.542942 -5.380624 5.021221 48.157697 -3.628600 -10.339807 -22.147904 1.365806 5.095554 -12.141625 -0.000019 -0.000003 -0.000000 0.000003 0.000000 
0.258969 83.637726 149.034927 -8.617198 -33.811820 -4.314039 20.265660 7.012833 12.512575 1.733858 -1.612162 1.990384 1.802808 -1.614232 2.069482 -0.999920 -0.181780 7.099232 -13.914286 30.278000 -6.445682 0.000001 -0.000000 0.000000 -3.911498 3.888868 2.160416 -23.048994 -10.044784 -89.105815 0.641630 -89.801661 0.642621 -78.209846 -18.908858 11.946841 4.709239 9.560356 3.111992 19.473194 -1.474909 7.636928 -4.536192 -9.613088 1.492963 -0.000003 0.000001 -0.000000 -0.212823 3.933707 -36.747128 2.942151 5.078892 -60.144610 0.513681 2.400819 -24.150521 -0.000003 0.000001 -0.000002 0.405912 5.507047 -52.453172 3.387141 5.308631 -65.057456 0.282019 1.797452 -17.832377 -0.000003 0.000003 -0.000001 -0.074382 5.736784 -61.061427 4.055004 5.569520 -72.094901 0.582668 2.548974 -25.748001 0.000002 0.000000 -0.000000 -6.565574 4.545132 -72.425215 3.299626 5.267206 -64.107821 0.175351 1.424010 -14.038895 -0.000001 0.000002 0.000000 -2.040302 2.770102 19.770935 24.757183 18.840706 23.051791 -0.000002 35.045970 0.000019 0.304722 -12.854919 -16.702656 23.386481 7.422884 -6.913401 11.002924 -5.946393 0.633027 -7.108355 -55.609942 -30.189170 -0.000004 -0.000000 -0.000001 1.259414 -5.796335 26.558777 3.122441 -4.397552 70.739429 0.659585 -2.391206 30.837932 0.000000 -0.000000 -0.000001 1.166093 -5.351974 34.479485 3.037034 -4.366858 69.621744 0.922089 -2.783779 36.647670 -0.000001 0.000001 0.000001 1.238428 -5.389444 41.476727 3.886841 -4.593161 80.468760 1.088163 -2.993834 39.941894 0.000001 0.000000 -0.000001 -0.380812 -0.619156 11.487906 3.164902 -4.412125 71.292217 0.447253 -1.993231 25.291395 -0.000000 0.000000 -0.000000 -40.314696 24.747088 21.200318 55.836103 -7.873940 0.019090 9.524834 -4.788595 11.128107 -16.285300 0.516686 -4.708257 -0.000000 0.000001 -0.000000 -15.572988 -5.160299 3.161884 45.530659 -2.584716 -10.272453 -23.177303 1.171092 5.206395 -12.203794 -0.000002 -0.000002 -0.000000 0.000001 0.000001 
-0.013381 85.089966 151.770081 -8.930625 -34.179773 -3.773008 20.249837 4.987388 11.906939 1.469487 -1.812590 2.263072 1.575659 -1.826304 2.338661 -0.749006 0.078220 7.160140 -12.159975 32.446694 -7.429214 -0.000001 0.000000 0.000000 -3.298411 3.478083 2.454782 -24.140788 -8.678539 -87.679084 -56.603263 -89.981431 -56.610916 -79.023608 -19.309530 13.406671 4.709219 9.560369 3.111987 19.473195 -1.474907 7.636925 -4.536191 -9.613089 1.492960 -0.000001 -0.000001 0.000001 -0.212815 3.933702 -36.747125 2.942118 5.078907 -60.144597 0.513684 2.400820 -24.150521 -0.000003 0.000000 -0.000002 0.405911 5.507044 -52.453169 3.387139 5.308633 -65.057463 0.282014 1.797451 -17.832384 0.000001 0.000002 0.000001 -0.074382 5.736786 -61.061427 4.055029 5.569503 -72.094914 0.582665 2.548972 -25.748001 0.000002 0.000000 -0.000001 -6.565583 4.545132 -72.425215 3.299627 5.267216 -64.107807 0.175346 1.423997 -14.038884 -0.000003 -0.000001 -0.000000 -0.603373 -1.713042 16.332830 27.752411 17.148863 24.013063 0.000003 28.534485 -0.000001 0.457244 -10.213084 -14.537549 23.146485 7.996460 -6.246948 10.549319 -6.733630 0.436379 -6.728344 -55.604891 -29.743876 -0.000004 0.000000 0.000001 1.150406 -5.613791 25.938939 3.099685 -4.389555 70.442323 0.647112 -2.370208 30.537711 0.000001 -0.000000 0.000000 1.134659 -5.307058 34.436130 3.016968 -4.359379 69.357914 0.948884 -2.819402 37.195926 0.000000 0.000000 -0.000001 1.217631 -5.366136 41.134674 3.855580 -4.587827 80.078169 1.097685 -3.005148 40.123902 -0.000001 -0.000000 -0.000001 -0.325187 -0.854419 11.283894 3.138129 -4.402995 70.943823 0.455693 -2.010989 25.533008 -0.000002 -0.000001 -0.000000 -40.612404 23.954370 21.003230 46.947466 -8.295833 -0.145340 8.777104 -4.448164 7.887782 -8.864512 -0.000003 -0.000002 -0.000000 -0.000002 -0.000000 -12.050437 -5.455833 1.188487 42.739393 -0.907976 -10.082480 -23.660796 0.716549 5.417155 -12.417938 -0.000015 -0.000001 -0.000000 -0.000000 -0.000000 
